<svg xmlns="http://www.w3.org/2000/svg" xmlns:xlink="http://www.w3.org/1999/xlink" width="500" zoomAndPan="magnify" viewBox="0 0 375 374.999991" height="500" preserveAspectRatio="xMidYMid meet" version="1.0"><defs><clipPath id="9549c3b32f"><path d="M 7.953125 151 L 299 151 L 299 345.707031 L 7.953125 345.707031 Z M 7.953125 151 " clip-rule="nonzero"/></clipPath><clipPath id="cee36beee9"><path d="M 317 22.457031 L 367.203125 22.457031 L 367.203125 73 L 317 73 Z M 317 22.457031 " clip-rule="nonzero"/></clipPath></defs><rect x="-37.5" width="450" fill="#ffffff" y="-37.499999" height="449.999989" fill-opacity="1"/><rect x="-37.5" width="450" fill="#ffffff" y="-37.499999" height="449.999989" fill-opacity="1"/><g clip-path="url(#9549c3b32f)"><path fill="#42cacf" d="M 7.953125 230.0625 L 75.058594 278.644531 C 86.984375 303.273438 102.402344 326.546875 120.441406 345.265625 L 120.441406 322.28125 C 120.441406 291.734375 145.457031 266.8125 175.90625 266.8125 C 206.453125 266.8125 231.472656 291.832031 231.472656 322.28125 L 231.375 345.265625 C 265.800781 299.785156 302.457031 214.644531 298.1875 158.882812 C 297.996094 156.363281 297.703125 153.839844 297.414062 151.417969 C 245.4375 241.019531 90.863281 270.5 7.953125 230.0625 " fill-opacity="1" fill-rule="evenodd"/></g><path fill="#42cacf" d="M 200.441406 113.308594 C 170.574219 123.683594 144.296875 110.785156 123.15625 106.617188 C 52.558594 92.652344 37.335938 155.976562 55.566406 226.085938 C 147.203125 241.117188 285.582031 217.84375 320.296875 79.660156 L 287.132812 120.484375 C 275.011719 100.703125 253.097656 94.496094 221.582031 116.605469 C 194.140625 135.902344 167.277344 154.035156 136.730469 145.113281 C 136.730469 145.210938 187.351562 141.816406 200.441406 113.308594 " fill-opacity="1" fill-rule="evenodd"/><path fill="#42cacf" d="M 276.078125 47.171875 C 282.09375 68.605469 277.726562 64.820312 299.0625 70.15625 C 277.632812 76.167969 281.414062 71.804688 276.078125 93.136719 C 270.066406 71.707031 274.429688 75.488281 253.097656 70.15625 C 274.527344 64.144531 270.648438 68.507812 276.078125 47.171875 " fill-opacity="1" fill-rule="evenodd"/><path fill="#42cacf" d="M 338.042969 123.683594 C 343.570312 143.273438 339.5 139.78125 359.183594 144.824219 C 339.597656 150.351562 343.085938 146.277344 338.042969 165.964844 C 332.515625 146.375 336.589844 149.867188 316.90625 144.824219 C 336.492188 139.296875 333.003906 143.273438 338.042969 123.683594 " fill-opacity="1" fill-rule="evenodd"/><g clip-path="url(#cee36beee9)"><path fill="#42cacf" d="M 342.410156 22.832031 C 348.808594 45.816406 344.152344 41.742188 367.039062 47.464844 C 344.058594 53.863281 348.128906 49.210938 342.410156 72.09375 C 336.007812 49.113281 340.664062 53.183594 317.777344 47.464844 C 340.664062 41.0625 336.589844 45.71875 342.410156 22.832031 " fill-opacity="1" fill-rule="evenodd"/></g></svg>